<svg xmlns="http://www.w3.org/2000/svg" viewBox="0 0 169 69"><defs><style>.cls-1{fill:#161616;}.cls-2{fill:none;stroke:#00418e;stroke-miterlimit:10;stroke-width:2.83px;}.cls-3{fill:#fff;}</style></defs><title>playerPower</title><g id="Layer_2" data-name="Layer 2"><g id="Layer_1-2" data-name="Layer 1"><rect class="cls-1" width="169" height="69" rx="13.53" ry="13.53"/><rect class="cls-2" x="7.5" y="7.5" width="154" height="54" rx="9.23" ry="9.23"/><path class="cls-3" d="M37.43,56.17a.08.08,0,0,0,0,.08.93.93,0,0,1-.54.06H25c-.87,0-1.74,0-2.61,0-.43,0-.6-.09-.55-.51v-.36c.2-.15.14-.39.17-.58.1-.66.18-1.33.26-2,.13-1.07.26-2.14.38-3.21l0-.18c.22-1.37.39-2.75.53-4.13l0-.18c.06-.43.1-.87.19-1.29a.79.79,0,0,0-.27-.84.48.48,0,0,0-.19-.27,2.42,2.42,0,0,0-.46-.64.48.48,0,0,0-.18-.28.49.49,0,0,0-.19-.27,2.36,2.36,0,0,0-.39-.59,5.81,5.81,0,0,0-.7-1,.48.48,0,0,0-.18-.28c-1-1.53-2.05-3-3.12-4.49a20.19,20.19,0,0,0-1.28-1.84h0l-.12-.17a.77.77,0,0,0-.25-.36,2.55,2.55,0,0,0-.47-.67h0l-.19-.28h0a20.84,20.84,0,0,0-1.29-1.84h0c-.4-.43-.3-.8.05-1.23a17.87,17.87,0,0,0,1-1.58h0l.19-.28h0l.19-.28h0A16,16,0,0,0,16.8,25a3.72,3.72,0,0,0,.56-.82.47.47,0,0,0,.19-.27.47.47,0,0,0,.18-.28.47.47,0,0,0,.18-.28c.7-.94,1.34-1.92,2-2.9a12.65,12.65,0,0,0,1-1.42h0l.19-.28h.16L27,21.41l4.21,1.93-.06.45,0,.18a1.2,1.2,0,0,0-.1.54,8.08,8.08,0,0,0-.26,1.35l-.11.39-1.18.29a8.18,8.18,0,0,0-1.38.35,4,4,0,0,0-.92.21l-.47.11c-.45.05-.93.42-1.34-.12L23,24.89c-.07.14,0,.22,0,.3,0,.57.44,1.13,0,1.71A7.15,7.15,0,0,0,22.28,28l-1.21.54c1.49.59,2.91,1.16,4.34,1.71a1.08,1.08,0,0,1,.54.45c.54.83,1.09,1.64,1.64,2.47a7.31,7.31,0,0,0,.76,1.17L30,36.81c.77,1.2,1.53,2.4,2.33,3.59.2.3.15.44-.13.57l0,0-1.59,1a.45.45,0,0,0-.28.18l-.72.42,0,.08,1.84.15c.2,0,.33.06.36.34.28,2.1.6,4.19.9,6.28.13.88.25,1.76.38,2.64a.67.67,0,0,0,.09-.41c0-2.44-.06-4.88-.1-7.33a.49.49,0,0,1,.33-.55c.47-.21.92-.46,1.39-.69a9.2,9.2,0,0,1-1.28-1.65.93.93,0,0,0-.13-.48q-.71-1.9-1.43-3.78a4.22,4.22,0,0,0-.47-1.13c-1-1.23-2-2.41-3-3.62a7.52,7.52,0,0,0-.87-1.08c.06-.2.2-.09.3-.07l6,1.27a1,1,0,0,1,.5.29c1,1,2.06,2,3.08,3,.21.21.33.24.57,0,1.49-1.35,3-2.68,4.51-4,.11.11,0,.23,0,.34a18.33,18.33,0,0,0-.45,2.11l0,.18c-.27,1.29-.53,2.58-.82,3.86a18.38,18.38,0,0,1-.6,2.61l-1.15,1.42h0l-.4.48a8.55,8.55,0,0,0-.86,1.06l-.31.38h0c-.2.12-.14.32-.14.5-.06,1.49-.12,3-.17,4.49Q37.53,52.74,37.43,56.17Z"/><path class="cls-3" d="M40.77,24.63,35.55,31l-.55.67c-.54.68-.54.68-1.31.31-1.1-.53-2.19-1.06-3.3-1.56-.26-.12-.25-.2-.11-.41.86-1.26,1.71-2.52,2.54-3.8.63-1,1.32-1.91,1.87-2.94.22-.08.28-.28.37-.46a5.08,5.08,0,0,0,.63-.94,9.16,9.16,0,0,0,.55-.81c.13-.24.27-.22.45-.1h0l.29.2a.77.77,0,0,0,.36.25l.17.12h0l.62.43h0l.2.13h0l.29.21.09,0,1.89,1.32C41.18,24.06,41.18,24.06,40.77,24.63Z"/><path class="cls-3" d="M44.29,27.76a3.7,3.7,0,0,0,.42.58c.38.35.41.66,0,1l-3.83,3.4c-1,.85-1.91,1.71-2.86,2.58-.19.18-.3.21-.52,0q-1.18-1.09-2.4-2.13c-.24-.2-.25-.32,0-.57q2.94-3.51,5.85-7c.08-.09.14-.19.21-.29l.22-.26.07-.08c.26-.39.44-.36.72,0C42.8,25.9,43.55,26.82,44.29,27.76Z"/><path class="cls-3" d="M33.27,24.52l-1.07.73a3,3,0,0,0-.73.48l-.12.06a11.26,11.26,0,0,1,.19-1.26l.2-1.1c.1-.17.15-.32-.09-.44-.43-.22-.85-.45-1.28-.68h0c-.65-.37-1.28-.76-1.94-1.11-.3-.15-.26-.26-.11-.49.75-1.16,1.49-2.34,2.23-3.51a.45.45,0,0,0,.18-.28c.12-.17.26-.34.36-.52s.24-.29.49-.11.7.43,1.05.64a1.06,1.06,0,0,0,.46.28,11.12,11.12,0,0,0,1.47.92c.6.39,1.18.8,1.81,1.14.35.19.31.33.12.6-.8,1.15-1.59,2.3-2.39,3.45h0a.39.39,0,0,0-.2.28l-.51.75Z"/><path class="cls-3" d="M30.37,27.36c-.5,1-1.15,2-1.71,3-.08.14-.15.1-.25,0l-2.81-1.6c-.07,0,0-.06,0-.09a6.8,6.8,0,0,0,1.27-.38A5.54,5.54,0,0,0,28.07,28l1.39-.4c.15,0,.31,0,.44-.14Z"/><path class="cls-3" d="M26.07,13.54a.32.32,0,0,1,.51-.09,8.27,8.27,0,0,0,.82.45h0L30,15.45c.57.33.57.32.31.9a1.2,1.2,0,0,0-.28.46,12.34,12.34,0,0,0-.92,1.56,1.07,1.07,0,0,0-.28.46c-.25.4-.5.79-.74,1.19-.53.87-.52.88-1.45.52a.86.86,0,0,0-.17,0h-.08c-.1-.18-.3-.2-.46-.27l-3.71-1.59L25,15a.06.06,0,0,0,0,0l.22-.3h0a7.91,7.91,0,0,0,.83-1.11Z"/></g></g></svg>