<svg xmlns="http://www.w3.org/2000/svg" xmlns:xlink="http://www.w3.org/1999/xlink" viewBox="0 0 216.39 300.04"><defs><style>.cls-1{fill:url(#linear-gradient);}.cls-2{font-size:25.43px;fill:#fff;font-family:Seagramtfb, Seagram tfb;}.cls-3{fill:#333;opacity:0.67;}.cls-4{fill:#020202;}.cls-5{fill:#161616;}.cls-6{fill:url(#linear-gradient-2);}</style><linearGradient id="linear-gradient" x1="-610.53" y1="-1966.63" x2="-610.53" y2="-2061.38" gradientTransform="matrix(1, 0, 0, -1, 779.54, -1887.23)" gradientUnits="userSpaceOnUse"><stop offset="0" stop-color="#1b1464"/><stop offset="0.24" stop-color="#1a1767"/><stop offset="0.44" stop-color="#172271"/><stop offset="0.62" stop-color="#123381"/><stop offset="0.8" stop-color="#0b4b98"/><stop offset="0.96" stop-color="#026bb6"/><stop offset="0.99" stop-color="#0071bc"/></linearGradient><linearGradient id="linear-gradient-2" x1="-4081.53" y1="409.91" x2="-4176.28" y2="315.15" gradientTransform="matrix(1, 0, 0, -1, 4297.92, 615.19)" xlink:href="#linear-gradient"/></defs><title>PlayerSoulsLifeRIGHT</title><g id="Layer_2" data-name="Layer 2"><g id="Layer_1-2" data-name="Layer 1"><path class="cls-1" d="M42.24,79.4H275.1a20.69,20.69,0,0,1,20.69,20.69v53.38a20.69,20.69,0,0,1-20.69,20.69H42.24a0,0,0,0,1,0,0V79.4A0,0,0,0,1,42.24,79.4Z" transform="translate(42.24 295.79) rotate(-90)"/><text class="cls-2" transform="translate(140.53 198.87)">Souls</text><rect class="cls-3" x="85.46" y="49.49" width="167.1" height="76.95" rx="15.68" ry="15.68" transform="translate(256.98 -81.05) rotate(90)"/><circle class="cls-4" cx="151.05" cy="56.85" r="11.32"/><circle class="cls-4" cx="151.05" cy="88.2" r="11.32"/><circle class="cls-4" cx="151.05" cy="119.56" r="11.32"/><circle class="cls-4" cx="151.05" cy="150.92" r="11.32"/><circle class="cls-4" cx="184.87" cy="25.49" r="11.32"/><circle class="cls-4" cx="184.87" cy="56.85" r="11.32"/><circle class="cls-4" cx="184.87" cy="88.2" r="11.32"/><circle class="cls-4" cx="184.87" cy="119.56" r="11.32"/><circle class="cls-4" cx="184.87" cy="150.92" r="11.32"/><circle class="cls-4" cx="151.05" cy="25.49" r="11.32"/><path class="cls-5" d="M0,205.29H201.52a14.87,14.87,0,0,1,14.87,14.87v65A14.87,14.87,0,0,1,201.52,300H0a0,0,0,0,1,0,0V205.29A0,0,0,0,1,0,205.29Z" transform="translate(216.39 505.32) rotate(180)"/><rect class="cls-6" x="121.64" y="205.29" width="94.75" height="94.75" transform="translate(338.03 505.32) rotate(180)"/><rect x="128.51" y="212.16" width="81" height="81" transform="translate(338.03 505.32) rotate(180)"/></g></g></svg>