<svg xmlns="http://www.w3.org/2000/svg" xmlns:xlink="http://www.w3.org/1999/xlink" viewBox="0 0 410 590"><defs><style>.cls-1{fill:url(#linear-gradient);}.cls-2{fill:url(#linear-gradient-2);}.cls-3{fill:url(#linear-gradient-3);}.cls-4{fill:url(#linear-gradient-4);}.cls-5{fill:url(#radial-gradient);}.cls-6{fill:#c892ff;}.cls-7{fill:#5e329f;}.cls-8{fill:#9867de;}.cls-9{fill:#25034f;}.cls-10{fill:url(#linear-gradient-5);}.cls-11{fill:#1c1c1c;}.cls-12{fill:#1c002f;}.cls-13{fill:url(#linear-gradient-6);}</style><linearGradient id="linear-gradient" x1="205" x2="205" y2="590" gradientUnits="userSpaceOnUse"><stop offset="0.01" stop-color="#f3d4ff"/><stop offset="0.15" stop-color="#9c42fd"/><stop offset="0.61" stop-color="#d4a9ff"/><stop offset="0.62" stop-color="#d3a7ff"/><stop offset="0.69" stop-color="#cb97ff"/><stop offset="0.74" stop-color="#c892ff"/><stop offset="0.77" stop-color="#c38afb"/><stop offset="0.82" stop-color="#b475f0"/><stop offset="0.88" stop-color="#9c53df"/><stop offset="0.89" stop-color="#974bdb"/><stop offset="1" stop-color="#55297e"/></linearGradient><linearGradient id="linear-gradient-2" x1="205" x2="205" y2="590" gradientUnits="userSpaceOnUse"><stop offset="0" stop-color="#c892ff"/><stop offset="0.13" stop-color="#b5a4d3"/><stop offset="0.31" stop-color="#be9edc"/><stop offset="0.45" stop-color="#9e5ee2"/><stop offset="0.5" stop-color="#c290ee"/><stop offset="0.55" stop-color="#e5c1fa"/><stop offset="0.58" stop-color="#f3d4ff"/><stop offset="0.58" stop-color="#f2d3fe"/><stop offset="0.62" stop-color="#a981bd"/><stop offset="0.66" stop-color="#73458d"/><stop offset="0.69" stop-color="#52206f"/><stop offset="0.7" stop-color="#451264"/><stop offset="0.85" stop-color="#451264"/><stop offset="1" stop-color="#6621bc"/></linearGradient><linearGradient id="linear-gradient-3" x1="205" y1="574.63" x2="205" y2="15.37" gradientUnits="userSpaceOnUse"><stop offset="0" stop-color="#4b0e7e"/><stop offset="0.06" stop-color="#b5a4d3"/><stop offset="0.2" stop-color="#be9edc"/><stop offset="0.23" stop-color="#ae8ccf"/><stop offset="0.31" stop-color="#72479f"/><stop offset="0.36" stop-color="#4d1c81"/><stop offset="0.39" stop-color="#3f0c75"/><stop offset="0.43" stop-color="#71449c"/><stop offset="0.46" stop-color="#9f77bf"/><stop offset="0.5" stop-color="#c39fdb"/><stop offset="0.53" stop-color="#debcef"/><stop offset="0.56" stop-color="#edcefb"/><stop offset="0.58" stop-color="#f3d4ff"/><stop offset="0.6" stop-color="#edcefa"/><stop offset="0.64" stop-color="#debcec"/><stop offset="0.68" stop-color="#c4a0d5"/><stop offset="0.72" stop-color="#a077b5"/><stop offset="0.77" stop-color="#72458c"/><stop offset="0.81" stop-color="#451264"/><stop offset="0.91" stop-color="#451264"/><stop offset="1" stop-color="#9c42fd"/></linearGradient><linearGradient id="linear-gradient-4" x1="205" y1="558.12" x2="205" y2="31.88" gradientUnits="userSpaceOnUse"><stop offset="0" stop-color="#b5a4d3"/><stop offset="0.2" stop-color="#be9edc"/><stop offset="0.3" stop-color="#a288bb"/><stop offset="0.48" stop-color="#736283"/><stop offset="0.64" stop-color="#4d4456"/><stop offset="0.79" stop-color="#322e37"/><stop offset="0.92" stop-color="#222123"/><stop offset="1" stop-color="#1c1c1c"/></linearGradient><radialGradient id="radial-gradient" cx="350.7" cy="105.99" r="84.74" gradientTransform="translate(150.72 -225.86) rotate(45)" gradientUnits="userSpaceOnUse"><stop offset="0" stop-color="#0071bc"/><stop offset="0.08" stop-color="#0161b3"/><stop offset="0.25" stop-color="#05399a"/><stop offset="0.34" stop-color="#071e8a"/><stop offset="0.59" stop-color="#041251"/><stop offset="0.87" stop-color="#010517"/><stop offset="1"/></radialGradient><linearGradient id="linear-gradient-5" x1="355" y1="214.82" x2="355" y2="131.18" gradientTransform="translate(226.31 -200.35) rotate(45)" gradientUnits="userSpaceOnUse"><stop offset="0" stop-color="#ff1d25"/><stop offset="0.02" stop-color="#f41b22"/><stop offset="0.12" stop-color="#be1116"/><stop offset="0.21" stop-color="#940a0d"/><stop offset="0.29" stop-color="#760406"/><stop offset="0.36" stop-color="#640102"/><stop offset="0.41" stop-color="#5d0000"/><stop offset="0.51" stop-color="#3f0000"/><stop offset="0.63" stop-color="#240000"/><stop offset="0.75" stop-color="#100000"/><stop offset="0.87" stop-color="#040000"/><stop offset="1"/></linearGradient><linearGradient id="linear-gradient-6" x1="158" y1="47" x2="296" y2="47" gradientUnits="userSpaceOnUse"><stop offset="0" stop-color="#ab67e2"/><stop offset="0.07" stop-color="#55297e"/><stop offset="0.29" stop-color="#974bdb"/><stop offset="0.56" stop-color="#c892ff"/><stop offset="1" stop-color="#4b0e7e"/></linearGradient></defs><title>fr_epic</title><g id="Layer_2" data-name="Layer 2"><g id="Layer_2-2" data-name="Layer 2"><path class="cls-1" d="M385.06,0H24.94A24.94,24.94,0,0,0,0,24.94V565.06A24.94,24.94,0,0,0,24.94,590H385.06A24.94,24.94,0,0,0,410,565.06V24.94A24.94,24.94,0,0,0,385.06,0ZM381,531.78a26.34,26.34,0,0,1-26.34,26.34H55.34A26.34,26.34,0,0,1,29,531.78V47.7A15.81,15.81,0,0,1,44.81,31.88H61.71S199.5,40.5,236.5,52.5A527.56,527.56,0,0,1,306,81.23h4.37L362.5,60.5l-8,49v4l-4.75,82.14s19.75,23,31.25,92Z"/><path class="cls-2" d="M385.06,19.84a5.11,5.11,0,0,1,5.1,5.1V565.06a5.11,5.11,0,0,1-5.1,5.1H24.94a5.11,5.11,0,0,1-5.1-5.1V24.94a5.11,5.11,0,0,1,5.1-5.1H385.06m0-19.84H24.94A24.94,24.94,0,0,0,0,24.94V565.06A24.94,24.94,0,0,0,24.94,590H385.06A24.94,24.94,0,0,0,410,565.06V24.94A24.94,24.94,0,0,0,385.06,0Z"/><path class="cls-3" d="M373.64,23.87A15,15,0,0,1,388.5,39V551a15,15,0,0,1-14.86,15.14H36.36A15,15,0,0,1,21.5,551V39A15,15,0,0,1,36.36,23.87H373.64m0-8.5H36.36A23.5,23.5,0,0,0,13,39V551a23.5,23.5,0,0,0,23.36,23.64H373.64A23.5,23.5,0,0,0,397,551V39a23.5,23.5,0,0,0-23.36-23.64Z"/><path class="cls-4" d="M61.53,37.55c5.61.36,137.91,8.89,173.22,20.34a526.37,526.37,0,0,1,68.66,28.37l1.22.63h6.83l1-.4,42.83-17-6.39,39.12-.07.45v4.29l-4.75,82-.15,2.26,1.49,1.74c.19.22,18.89,23.14,29.91,88.76V531.78a20.69,20.69,0,0,1-20.67,20.67H55.34a20.69,20.69,0,0,1-20.67-20.67V47.7A10.16,10.16,0,0,1,44.81,37.55H61.53m.18-5.67H44.81A15.81,15.81,0,0,0,29,47.7V531.78a26.34,26.34,0,0,0,26.34,26.34H354.66A26.34,26.34,0,0,0,381,531.78V287.59c-11.5-68.91-31.25-92-31.25-92l4.75-82.14v-4l8-49L310.37,81.23H306A527.56,527.56,0,0,0,236.5,52.5c-37-12-174.79-20.62-174.79-20.62Z"/><rect class="cls-5" x="310.59" y="31.59" width="74.83" height="74.83" transform="translate(53.14 266.28) rotate(-45)"/><polygon class="cls-6" points="348 7 348 25.17 391.83 69 410 69 348 7"/><polygon class="cls-7" points="410 69 391.83 69 348 112.83 348 131 410 69"/><polygon class="cls-8" points="348 7 348 25.17 304.17 69 286 69 348 7"/><polygon class="cls-9" points="286 69 304.17 69 348 112.83 348 131 286 69"/><rect class="cls-10" x="325.43" y="143.43" width="59.14" height="59.14" transform="translate(-18.35 301.69) rotate(-45)"/><polygon class="cls-6" points="355 124 355 138.36 389.64 173 404 173 355 124"/><polygon class="cls-7" points="404 173 389.64 173 355 207.64 355 222 404 173"/><polygon class="cls-8" points="355 124 355 138.36 320.36 173 306 173 355 124"/><polygon class="cls-11" points="306 173 320.36 173 355 207.64 355 222 306 173"/><path class="cls-12" d="M158,31H296s-8,16-8,32c0,0-53-20-68-22S158,31,158,31Z"/><path class="cls-13" d="M291.63,33.83A85.43,85.43,0,0,0,285.32,59c-12.4-4.6-52-19-64.94-20.78-5.93-.79-17-2.54-28.12-4.36h99.37M296,31H158s47,8,62,10,68,22,68,22c0-16,8-32,8-32Z"/></g></g></svg>