<svg xmlns="http://www.w3.org/2000/svg" xmlns:xlink="http://www.w3.org/1999/xlink" viewBox="0 0 410 590"><defs><style>.cls-1{fill:url(#linear-gradient);}.cls-2{fill:url(#linear-gradient-2);}.cls-3{fill:url(#linear-gradient-3);}.cls-4{fill:url(#linear-gradient-4);}.cls-5{fill:url(#radial-gradient);}.cls-6{fill:#f1fff6;}.cls-7{fill:#4af76a;}.cls-8{fill:#4b7a0b;}.cls-9{fill:#1c1c1c;}.cls-10{fill:url(#linear-gradient-5);}.cls-11{fill:#1a1a1a;}.cls-12{fill:url(#linear-gradient-6);}</style><linearGradient id="linear-gradient" x1="205" x2="205" y2="590" gradientUnits="userSpaceOnUse"><stop offset="0.01" stop-color="#ebfff1"/><stop offset="0.15" stop-color="#79f991"/><stop offset="0.61" stop-color="#66f881"/><stop offset="0.62" stop-color="#71f98a"/><stop offset="0.65" stop-color="#9ffbb1"/><stop offset="0.67" stop-color="#c2fdcf"/><stop offset="0.7" stop-color="#dcfee4"/><stop offset="0.72" stop-color="#ecfff1"/><stop offset="0.74" stop-color="#f1fff6"/><stop offset="0.76" stop-color="#e9fff0"/><stop offset="0.78" stop-color="#d4fede"/><stop offset="0.82" stop-color="#b1fcc1"/><stop offset="0.86" stop-color="#82fa98"/><stop offset="0.89" stop-color="#59f876"/><stop offset="1" stop-color="#4ef76d"/></linearGradient><linearGradient id="linear-gradient-2" x1="205" x2="205" y2="590" gradientUnits="userSpaceOnUse"><stop offset="0" stop-color="#8cc63f"/><stop offset="0.13" stop-color="#009245"/><stop offset="0.31" stop-color="#57f875"/><stop offset="0.34" stop-color="#5ae568"/><stop offset="0.45" stop-color="#68932f"/><stop offset="0.49" stop-color="#41bb1e"/><stop offset="0.55" stop-color="#12ec08"/><stop offset="0.58" stop-color="lime"/><stop offset="0.61" stop-color="#00d60f"/><stop offset="0.65" stop-color="#009b24"/><stop offset="0.68" stop-color="#007632"/><stop offset="0.7" stop-color="#006837"/><stop offset="0.85" stop-color="#006837"/><stop offset="1" stop-color="#3b472c"/></linearGradient><linearGradient id="linear-gradient-3" x1="205" y1="574.63" x2="205" y2="15.37" gradientUnits="userSpaceOnUse"><stop offset="0" stop-color="#fcfffd"/><stop offset="0.06" stop-color="#92faa5"/><stop offset="0.2" stop-color="#57f875"/><stop offset="0.22" stop-color="#4de86e"/><stop offset="0.3" stop-color="#24a350"/><stop offset="0.36" stop-color="#0a783e"/><stop offset="0.39" stop-color="#006837"/><stop offset="0.4" stop-color="#006f34"/><stop offset="0.44" stop-color="#00a222"/><stop offset="0.48" stop-color="#00ca13"/><stop offset="0.52" stop-color="#00e709"/><stop offset="0.55" stop-color="#00f902"/><stop offset="0.58" stop-color="lime"/><stop offset="0.61" stop-color="#00f902"/><stop offset="0.65" stop-color="#00e709"/><stop offset="0.69" stop-color="#00cb13"/><stop offset="0.75" stop-color="#00a322"/><stop offset="0.8" stop-color="#007034"/><stop offset="0.81" stop-color="#006837"/><stop offset="0.94" stop-color="#006837"/><stop offset="1" stop-color="#79f991"/></linearGradient><linearGradient id="linear-gradient-4" x1="205" y1="558.12" x2="205" y2="31.88" gradientUnits="userSpaceOnUse"><stop offset="0" stop-color="#5ca100"/><stop offset="0.2" stop-color="#5e852a"/><stop offset="0.22" stop-color="#5c822a"/><stop offset="0.47" stop-color="#415624"/><stop offset="0.69" stop-color="#2d3620"/><stop offset="0.87" stop-color="#20231d"/><stop offset="1" stop-color="#1c1c1c"/></linearGradient><radialGradient id="radial-gradient" cx="350.7" cy="105.99" r="84.74" gradientTransform="translate(150.72 -225.86) rotate(45)" gradientUnits="userSpaceOnUse"><stop offset="0" stop-color="#0071bc"/><stop offset="0.08" stop-color="#0161b3"/><stop offset="0.25" stop-color="#05399a"/><stop offset="0.34" stop-color="#071e8a"/><stop offset="0.59" stop-color="#041251"/><stop offset="0.87" stop-color="#010517"/><stop offset="1"/></radialGradient><linearGradient id="linear-gradient-5" x1="355" y1="214.82" x2="355" y2="131.18" gradientTransform="translate(226.31 -200.35) rotate(45)" gradientUnits="userSpaceOnUse"><stop offset="0" stop-color="#ff1d25"/><stop offset="0.07" stop-color="#d1161c"/><stop offset="0.15" stop-color="#9c0e12"/><stop offset="0.23" stop-color="#71080a"/><stop offset="0.3" stop-color="#530405"/><stop offset="0.36" stop-color="#410101"/><stop offset="0.41" stop-color="#3a0000"/><stop offset="0.53" stop-color="#230000"/><stop offset="0.69" stop-color="#100000"/><stop offset="0.84" stop-color="#040000"/><stop offset="1"/></linearGradient><linearGradient id="linear-gradient-6" x1="158" y1="47" x2="296" y2="47" gradientUnits="userSpaceOnUse"><stop offset="0" stop-color="#f8fffa"/><stop offset="0.07" stop-color="#4ef76d"/><stop offset="0.29" stop-color="#59f876"/><stop offset="0.56" stop-color="#f1fff6"/><stop offset="0.86" stop-color="#1a1a1a"/><stop offset="1" stop-color="#fcfffd"/></linearGradient></defs><title>fr_uncommon</title><g id="Layer_2" data-name="Layer 2"><g id="Layer_2-2" data-name="Layer 2"><path class="cls-1" d="M385.06,0H24.94A24.94,24.94,0,0,0,0,24.94V565.06A24.94,24.94,0,0,0,24.94,590H385.06A24.94,24.94,0,0,0,410,565.06V24.94A24.94,24.94,0,0,0,385.06,0ZM381,531.78a26.34,26.34,0,0,1-26.34,26.34H55.34A26.34,26.34,0,0,1,29,531.78V47.7A15.81,15.81,0,0,1,44.81,31.88H61.71S199.5,40.5,236.5,52.5A527.56,527.56,0,0,1,306,81.23h4.37L362.5,60.5l-8,49v4l-4.75,82.14s19.75,23,31.25,92Z"/><path class="cls-2" d="M385.06,19.84a5.11,5.11,0,0,1,5.1,5.1V565.06a5.11,5.11,0,0,1-5.1,5.1H24.94a5.11,5.11,0,0,1-5.1-5.1V24.94a5.11,5.11,0,0,1,5.1-5.1H385.06m0-19.84H24.94A24.94,24.94,0,0,0,0,24.94V565.06A24.94,24.94,0,0,0,24.94,590H385.06A24.94,24.94,0,0,0,410,565.06V24.94A24.94,24.94,0,0,0,385.06,0Z"/><path class="cls-3" d="M373.64,23.87A15,15,0,0,1,388.5,39V551a15,15,0,0,1-14.86,15.14H36.36A15,15,0,0,1,21.5,551V39A15,15,0,0,1,36.36,23.87H373.64m0-8.5H36.36A23.5,23.5,0,0,0,13,39V551a23.5,23.5,0,0,0,23.36,23.64H373.64A23.5,23.5,0,0,0,397,551V39a23.5,23.5,0,0,0-23.36-23.64Z"/><path class="cls-4" d="M61.53,37.55c5.61.36,137.9,8.89,173.22,20.34a526.37,526.37,0,0,1,68.66,28.37l1.22.63h6.83l1-.4,42.83-17-6.39,39.12-.07.45v4.29l-4.75,82-.15,2.26,1.49,1.74c.19.22,18.89,23.14,29.91,88.76V531.78a20.69,20.69,0,0,1-20.67,20.67H55.34a20.69,20.69,0,0,1-20.67-20.67V47.7A10.15,10.15,0,0,1,44.81,37.55H61.53m.18-5.67H44.81A15.81,15.81,0,0,0,29,47.7V531.78a26.34,26.34,0,0,0,26.34,26.34H354.66A26.34,26.34,0,0,0,381,531.78V287.59c-11.5-68.91-31.25-92-31.25-92l4.75-82.14v-4l8-49L310.37,81.23H306A527.56,527.56,0,0,0,236.5,52.5c-37-12-174.79-20.62-174.79-20.62Z"/><rect class="cls-5" x="310.59" y="31.59" width="74.83" height="74.83" transform="translate(53.14 266.28) rotate(-45)"/><polygon class="cls-6" points="348 7 348 25.17 391.83 69 410 69 348 7"/><polygon class="cls-7" points="410 69 391.83 69 348 112.83 348 131 410 69"/><polygon class="cls-8" points="348 7 348 25.17 304.17 69 286 69 348 7"/><polygon class="cls-9" points="286 69 304.17 69 348 112.83 348 131 286 69"/><rect class="cls-10" x="325.43" y="143.43" width="59.14" height="59.14" transform="translate(-18.35 301.69) rotate(-45)"/><polygon class="cls-6" points="355 124 355 138.36 389.64 173 404 173 355 124"/><polygon class="cls-7" points="404 173 389.64 173 355 207.64 355 222 404 173"/><polygon class="cls-8" points="355 124 355 138.36 320.36 173 306 173 355 124"/><polygon class="cls-9" points="306 173 320.36 173 355 207.64 355 222 306 173"/><path class="cls-11" d="M158,31H296s-8,16-8,32c0,0-53-20-68-22S158,31,158,31Z"/><path class="cls-12" d="M291.63,33.83A85.43,85.43,0,0,0,285.32,59c-12.4-4.6-52-19-64.94-20.78-5.93-.79-17-2.54-28.12-4.36h99.37M296,31H158s47,8,62,10,68,22,68,22c0-16,8-32,8-32Z"/></g></g></svg>