<svg xmlns="http://www.w3.org/2000/svg" xmlns:xlink="http://www.w3.org/1999/xlink" viewBox="0 0 62.73 62.73"><defs><style>.cls-1{stroke:#000;stroke-miterlimit:10;stroke-width:2.83px;fill:url(#linear-gradient);}.cls-2{fill:url(#linear-gradient-2);}.cls-3{fill:url(#linear-gradient-3);}</style><linearGradient id="linear-gradient" x1="31.36" y1="61.31" x2="31.36" y2="1.42" gradientUnits="userSpaceOnUse"><stop offset="0" stop-color="#380000"/><stop offset="0.19" stop-color="#3b0002"/><stop offset="0.35" stop-color="#460208"/><stop offset="0.5" stop-color="#570412"/><stop offset="0.64" stop-color="#6f0720"/><stop offset="0.77" stop-color="#8f0b32"/><stop offset="0.91" stop-color="#b51048"/><stop offset="0.99" stop-color="#d4145a"/></linearGradient><linearGradient id="linear-gradient-2" x1="27.97" y1="11.99" x2="27.97" y2="50.74" xlink:href="#linear-gradient"/><linearGradient id="linear-gradient-3" x1="45.09" y1="18.3" x2="45.09" y2="44.4" xlink:href="#linear-gradient"/></defs><title>but_sndOff</title><g id="Layer_2" data-name="Layer 2"><g id="Layer_1-2" data-name="Layer 1"><rect class="cls-1" x="1.42" y="1.42" width="59.89" height="59.89" rx="11.28" ry="11.28"/><path class="cls-2" d="M40.2,38l1.23-.84.09-.15.19-.14.89-1,.62-1,.23-.47.41-1.21.21-1.46,0-1.22-.3-1.37-.07-.25a9.24,9.24,0,0,0-1.6-2.7l-.27-.27a9,9,0,0,0-2.65-1.73l-.15,0-.32-.09a2.93,2.93,0,0,0-1.09-.19,2.8,2.8,0,0,0-1.64.59l-.11.08-.22.3V14.4l0-.22a3.18,3.18,0,0,0-1.05-1.75l0-.08-.28-.13a2.65,2.65,0,0,0-1.76-.15l-.17,0h0l-.37.06-.07.16-.23.12-.75.59-.08.07a25.3,25.3,0,0,1-1.89,1.83l-1.64,1.62-.23.24a4.75,4.75,0,0,1-.67.66l-.75.75c-.59.6-1.15,1.17-1.76,1.69l-.18.21a1.34,1.34,0,0,1-.16.14l-.19.17a6.19,6.19,0,0,1-.77.76l-.43.43c-.64.66-1.33,1.37-2.07,2l-.08.08-6,0-.13,0a2.71,2.71,0,0,0-1.92,2.95V37l.11.13.07.3A3.45,3.45,0,0,0,13,38.5l.46.44.19-.11.22.07a4.35,4.35,0,0,0,1,.09l.46,0H19l.42,0a3.33,3.33,0,0,1,.55,0,4.57,4.57,0,0,1,.5.52l.2.18a1.36,1.36,0,0,1,.18.15L21,40a6.77,6.77,0,0,1,.85.85l1.59,1.57.09.08a5.81,5.81,0,0,1,.8.77l.38.38a6.77,6.77,0,0,1,.86.83L26,45a6.71,6.71,0,0,1,.8.8l.37.35a7.76,7.76,0,0,1,.88.87l1.38,1.33.31.3a6,6,0,0,1,.79.79l.43.41.13.1a1.19,1.19,0,0,1,.17.14,1.83,1.83,0,0,0,1.24.59,2.61,2.61,0,0,0,.59.07,2.49,2.49,0,0,0,1.14-.28l.16-.1a4.07,4.07,0,0,0,.72-.81l.07-.11a4.64,4.64,0,0,0,.38-1.26l.06-.28V37.73a2.25,2.25,0,0,0,.27.34l.63.48.94.29h.15a6.18,6.18,0,0,0,2.25-.68Zm-4.49-3.34-.09.12V28a2.38,2.38,0,0,0,.59.57,2.87,2.87,0,0,0,.81.34,2,2,0,0,1,.38.14,2.33,2.33,0,0,1,1.41,1.48,2.29,2.29,0,0,1,.09,1.31l-.06,0,0,.21-.11.08v.26l-.1.2a1.32,1.32,0,0,1-.37.49l-.16.15s-.07.08,0,.08l-.2.05-.15.14a.42.42,0,0,1-.23.12l-.24.07-.25.11A2.87,2.87,0,0,0,35.71,34.67Z"/><path class="cls-3" d="M50.83,30.44v-.1c-.13-1-.26-1.82-.43-2.62l-.29-1a21.87,21.87,0,0,0-1.36-2.9l-.13-.18a2.06,2.06,0,0,1-.34-.52L48.18,23,48,22.84a.88.88,0,0,1-.08-.11,2.75,2.75,0,0,0-.17-.24,18.1,18.1,0,0,0-2.36-2.41,4.66,4.66,0,0,0-.66-.47,3.53,3.53,0,0,1-.42-.28l-1.16-.68-.05-.09-.19-.05-.34-.2-.14.09a3,3,0,0,0-1.39.09l-.13,0h-.06l-.17.07-.07.1A2.84,2.84,0,0,0,39.4,20.6,2.55,2.55,0,0,0,40,22.54a2.31,2.31,0,0,0,.69.55,1.45,1.45,0,0,1,.21.13l.13.12.17.06a.56.56,0,0,1,.22.14l.12.12.15.06a1.13,1.13,0,0,1,.38.29l.11.11.14.07a2.08,2.08,0,0,1,.51.45l.46.47a2.7,2.7,0,0,1,.55.67L44,26a1.82,1.82,0,0,1,.35.52l0,.1.13.12a.65.65,0,0,1,0,.09l0,.13.08.11a4.61,4.61,0,0,1,.55,1.24,3.36,3.36,0,0,1,.28,1l0,.18a6.57,6.57,0,0,1,.21,2.17l0,.33a6.65,6.65,0,0,1-.33,1.91l0,.19A4,4,0,0,1,45,35l-.06.14a5.16,5.16,0,0,1-.49,1l-.2.29a3.78,3.78,0,0,1-.69,1l-.48.54a2.88,2.88,0,0,1-.53.5l-.55.44a3.82,3.82,0,0,1-.88.58l-.63.34-.16.12a3.08,3.08,0,0,0-.93,1.55l0,.14a2.89,2.89,0,0,0,.43,1.75l.06.09a2.93,2.93,0,0,0,1.08.84l.13,0a3.26,3.26,0,0,0,.88.13,2.68,2.68,0,0,0,.86-.14l.12-.05a21.11,21.11,0,0,0,2.47-1.57l.13-.11a1.66,1.66,0,0,1,.3-.27L47,41.1l1-1.27,1-1.48.47-.94.74-1.9v-.06l.16-.09v-.51a.82.82,0,0,1,.09-.31l.06-.13v-.14a3.54,3.54,0,0,1,.13-.8l.15-1.75Z"/><path d="M29.42,15.58a25.78,25.78,0,0,0,2-1.9L32,13.2l.4-.2a.09.09,0,0,0,.11-.06l.14,0a1.8,1.8,0,0,1,1.24.1.14.14,0,0,0,.13.09,2.37,2.37,0,0,1,.76,1.32l0,1.15V47.81A4.81,4.81,0,0,1,34.42,49a3.32,3.32,0,0,1-.57.64,1.64,1.64,0,0,1-1.24.11c-.49,0-.7-.39-1-.6l-.36-.33a6.91,6.91,0,0,0-.9-.9l-.25-.25-1-1-.29-.26a8.56,8.56,0,0,0-1-1l-.27-.25a7.67,7.67,0,0,0-.9-.9l-.42-.42a7.15,7.15,0,0,0-.92-.89L25,42.77a6.69,6.69,0,0,0-1-.92l-.35-.35-.91-.88-.34-.34a7,7,0,0,0-.91-.9,1.74,1.74,0,0,0-.43-.4,5.48,5.48,0,0,0-.76-.77A4.49,4.49,0,0,0,19,38.15H15.25A8.49,8.49,0,0,1,14,38.07l-.3-.1-.11-.07a0,0,0,0,0-.05,0,2.7,2.7,0,0,1-.67-.83.76.76,0,0,0-.11-.4V26.73a1.89,1.89,0,0,1,1.34-2.13l1.15,0h5c.18,0,.26-.19.36-.31.74-.65,1.44-1.35,2.12-2.06l.42-.42a6.41,6.41,0,0,0,.82-.82,1.79,1.79,0,0,0,.42-.42c.76-.64,1.44-1.36,2.14-2.07l.42-.41a5.25,5.25,0,0,0,.73-.74l.51-.5.74-.72Z"/><path d="M36.51,37.47a2.56,2.56,0,0,1-.5-.91,2.34,2.34,0,0,1,.23-1.15l.17-.25a3,3,0,0,1,1.16-.66,1.28,1.28,0,0,0,.67-.33,1.45,1.45,0,0,0,.56-.43,2.17,2.17,0,0,0,.59-.81.45.45,0,0,0,.16-.33.15.15,0,0,0,.07-.17v-.08a.15.15,0,0,0,.07-.17l0-.16a3.09,3.09,0,0,0-.12-1.82,3.18,3.18,0,0,0-1.88-2,10.71,10.71,0,0,1-1-.41,2,2,0,0,1-.76-1.1,2.34,2.34,0,0,1,.18-1.1l.34-.46a1.88,1.88,0,0,1,1.13-.43,4.37,4.37,0,0,1,1.24.26,8.06,8.06,0,0,1,2.4,1.56l.25.25a8.33,8.33,0,0,1,1.41,2.4l.31,1.33,0,1.15L43,32.93,42.67,34l-.23.47-.5.82-.74.85a1.39,1.39,0,0,0-.42.39l-.94.66a6.59,6.59,0,0,1-2.28.76l-.65-.2Z"/><path d="M41.48,22.59c-.25-.23-.59-.31-.81-.59a1.71,1.71,0,0,1,.45-2.63.16.16,0,0,0,.17-.08,2.21,2.21,0,0,1,1.24,0,0,0,0,0,0,.05,0l1.18.68c.33.28.75.46,1.06.73A17.28,17.28,0,0,1,47.07,23a2.56,2.56,0,0,0,.41.51,2.9,2.9,0,0,0,.49.74A20.66,20.66,0,0,1,49.28,27l.28.93c.18.82.3,1.65.4,2.48v1.24l-.08,1.24,0,.24a4.36,4.36,0,0,0-.17,1,1.59,1.59,0,0,0-.16.68.12.12,0,0,0-.06.14c0,.14-.13.26-.11.41l-.47,1.24-.18.41-.41.83-.77,1.23-.14.18-.75,1-.58.6-.66.64a2.27,2.27,0,0,0-.52.43,20.24,20.24,0,0,1-2.37,1.51,1.71,1.71,0,0,1-2.31-1.83,2.23,2.23,0,0,1,.67-1.13l.63-.34a4.58,4.58,0,0,0,1-.67l.42-.34a4.24,4.24,0,0,0,.81-.76l.43-.48A4.59,4.59,0,0,0,45,36.74l.13-.17a6.18,6.18,0,0,0,.59-1.17,5,5,0,0,0,.42-1.24,8.65,8.65,0,0,0,.41-2.48,7.53,7.53,0,0,0-.24-2.48A4.15,4.15,0,0,0,46,28a5.09,5.09,0,0,0-.65-1.42.87.87,0,0,0-.22-.41,2.67,2.67,0,0,0-.51-.76,3.47,3.47,0,0,0-.73-.89l-.35-.35a3.05,3.05,0,0,0-.82-.72,2,2,0,0,0-.67-.49A1.42,1.42,0,0,0,41.48,22.59Z"/></g></g></svg>