<svg xmlns="http://www.w3.org/2000/svg" xmlns:xlink="http://www.w3.org/1999/xlink" viewBox="0 0 62.73 62.73"><defs><style>.cls-1{stroke:#000;stroke-miterlimit:10;stroke-width:2.83px;fill:url(#linear-gradient);}.cls-2{fill:url(#linear-gradient-2);}.cls-3{fill:#fff;}</style><linearGradient id="linear-gradient" x1="31.36" y1="61.31" x2="31.36" y2="1.42" gradientUnits="userSpaceOnUse"><stop offset="0" stop-color="#380000"/><stop offset="0.19" stop-color="#3b0002"/><stop offset="0.35" stop-color="#460208"/><stop offset="0.5" stop-color="#570412"/><stop offset="0.64" stop-color="#6f0720"/><stop offset="0.77" stop-color="#8f0b32"/><stop offset="0.91" stop-color="#b51048"/><stop offset="0.99" stop-color="#d4145a"/></linearGradient><linearGradient id="linear-gradient-2" x1="31.36" y1="11.6" x2="31.36" y2="51.13" xlink:href="#linear-gradient"/></defs><title>but_mscOn</title><g id="Layer_2" data-name="Layer 2"><g id="Layer_1-2" data-name="Layer 1"><rect class="cls-1" x="1.42" y="1.42" width="59.89" height="59.89" rx="11.28" ry="11.28"/><path class="cls-2" d="M47.74,20.74c-.45-5.26-.79-5.65-5.9-7L40,13.23c-1-.28-2-.56-3.06-.82-3.1-.79-4.65-1.19-5.81-.33s-1.22,2.49-1.35,5.73a2.68,2.68,0,0,1-.06.39c0,.1,0,.21-.06.31V30.59a11.62,11.62,0,0,0-9.9.93,9.86,9.86,0,0,0-4.84,8.1C14.74,46,18.21,50.23,24.2,51a11,11,0,0,0,1.46.1,10.53,10.53,0,0,0,10.49-9.4,26.23,26.23,0,0,0,.1-3.19c0-.31,0-.61,0-.92,0-4.13,0-8.27,0-12.48V22l1.44.36c2,.5,3.89,1,5.67,1.59,1.14.4,2.58.76,3.58-.05S47.86,21.74,47.74,20.74Z"/><path class="cls-3" d="M46.6,20.87c.32,2.48-.66,2.81-2.87,2-2.67-.94-5.46-1.51-8.64-2.35,0,5.83,0,11.45,0,17.07a36.39,36.39,0,0,1-.09,4,9.4,9.4,0,0,1-10.65,8.3c-5.58-.74-8.44-4.59-8.27-10.23.19-6.29,7.33-10.92,14.73-7.36,0-4.63,0-9.12,0-13.61a7.09,7.09,0,0,0,.13-.84c.22-5.74.22-5.74,5.72-4.33,1.63.42,3.25.88,4.88,1.31C46.18,16.07,46.18,16.07,46.6,20.87Z"/></g></g></svg>