<svg xmlns="http://www.w3.org/2000/svg" xmlns:xlink="http://www.w3.org/1999/xlink" viewBox="0 0 158.82 71.71"><defs><style>.cls-1{stroke:#000;stroke-miterlimit:10;stroke-width:2.83px;fill:url(#linear-gradient);}.cls-2{fill:url(#linear-gradient-2);}.cls-3{fill:url(#linear-gradient-3);}.cls-4{fill:url(#linear-gradient-4);}.cls-5{fill:url(#linear-gradient-5);}.cls-6{font-size:30.37px;fill:#fff;font-family:Seagramtfb, Seagram tfb;letter-spacing:-0.04em;}.cls-7{letter-spacing:-0.2em;}</style><linearGradient id="linear-gradient" x1="79.41" y1="70.3" x2="79.41" y2="1.42" gradientUnits="userSpaceOnUse"><stop offset="0" stop-color="#1a1a1a"/><stop offset="0.18" stop-color="#1c1d1b"/><stop offset="0.34" stop-color="#23281d"/><stop offset="0.48" stop-color="#2f3921"/><stop offset="0.61" stop-color="#3f5126"/><stop offset="0.74" stop-color="#54712d"/><stop offset="0.87" stop-color="#6d9735"/><stop offset="0.99" stop-color="#8bc43f"/><stop offset="0.99" stop-color="#8cc63f"/></linearGradient><linearGradient id="linear-gradient-2" x1="30.77" y1="22.6" x2="30.77" y2="49.87" xlink:href="#linear-gradient"/><linearGradient id="linear-gradient-3" x1="57.72" y1="23.85" x2="57.72" y2="49.58" xlink:href="#linear-gradient"/><linearGradient id="linear-gradient-4" x1="91.47" y1="20.59" x2="91.47" y2="50.04" xlink:href="#linear-gradient"/><linearGradient id="linear-gradient-5" x1="119.33" y1="29.03" x2="119.33" y2="49.43" xlink:href="#linear-gradient"/></defs><title>but_endTover</title><g id="Layer_2" data-name="Layer 2"><g id="Layer_1-2" data-name="Layer 1"><rect class="cls-1" x="1.42" y="1.42" width="155.99" height="68.88" rx="11.28" ry="11.28"/><path class="cls-2" d="M38.1,43.3a4,4,0,0,1-.6,0,41.22,41.22,0,0,0-4.68-.67,5.65,5.65,0,0,0-.9.07,37.49,37.49,0,0,0,.49-4.44,5.35,5.35,0,0,0,2.43.86H35A5.34,5.34,0,0,0,37.79,38l.16-.12a10.63,10.63,0,0,0,2.95-4l.05-.22v-.17A1.24,1.24,0,0,0,40,32.34l-.49-.18-.44.28a11.66,11.66,0,0,1-1.5.84H37.3c-1.89-1.19-2.64-1.35-3.12-1.35a3.23,3.23,0,0,0-1.72.55c0-.93.1-2.23.24-3.88a1.16,1.16,0,0,1,.39.1,10.71,10.71,0,0,0,3.4,1,6.89,6.89,0,0,0,3.93-1.38l.1-.08c2.7-2.44,2.92-3,3-3.58V23.25h-2l-.29.22a2,2,0,0,1-1.13.49H39.7l-.4,0c-3-1.07-3.91-1.21-4.35-1.21H34.8a7.45,7.45,0,0,0-2.4.92v-.1l-.27-.3a2,2,0,0,0-1.5-.65h-.36l-.29.22a2.41,2.41,0,0,1-1.49.55H27.9C25,23,24.34,23,24.1,23h-.42a5.11,5.11,0,0,0-3.85,2.23l-.07.1a9.62,9.62,0,0,0-1.71,4v.14l0,.14c.18,1,.64,1.53,1.4,1.53,1,0,2-.65,2-2.49,0-.19,0-.37.56-.48l.35,0a10.63,10.63,0,0,0,3.66,1h.42l.44,0a11.33,11.33,0,0,0-.66,2.41v.15c-.19,7.75-.45,12.75-.77,14.87a2.29,2.29,0,0,0-.65,1.4v.22l.09.2a1.43,1.43,0,0,0,1,.84l-.34.57.61-.53h.21A4.17,4.17,0,0,0,27.69,49a5.69,5.69,0,0,1,2-.46h.67l.28.05c.13,0,.82.12,4.34.87l.16,0,.16,0a6.72,6.72,0,0,0,3.12-1.38L38.6,48a14.67,14.67,0,0,0,3.13-4l.1-.27V41.35l-1.7,1.28A3.27,3.27,0,0,1,38.1,43.3Z"/><path class="cls-3" d="M73.47,30.72l-.06-1.12H72l-.28.2-1,.68c0-.46-.05-1-.07-1.75q.06-3,.06-3.82V23.85h-1.6l-.29.22c-2.08,1.6-2.89,2.18-3.19,2.39h-1l.29,1.47c0,.42,0,.94,0,1.54l-.18-.15-.3-.25H64.1c-.48,0-.81.21-2,1.31a21.46,21.46,0,0,1-4,2.66l-.58.29V34q-.06,6.55-.06,8.43c0,.57,0,1,0,1.36l-.25.19-.09.07Q57,39.5,57,38a36.3,36.3,0,0,1,.29-4.09l.06-.5L57,33c-1.44-1.48-2.15-2.22-2.57-2.58a2.54,2.54,0,0,0-2.1-1.07h-.41l-.3.27c-1.06,1-1.82,1.58-2.38,2a13.25,13.25,0,0,0-1.86-1.83l-.3-.25H45.93l-.29.23c-2.59,2.06-3.09,2.43-3.18,2.49l-.48.31v.58a1.53,1.53,0,0,0,1.08,1.48l.36.12.35-.13.22-.08V37q0,2.59.05,7.11l-1.72,1.8.72.74a18.62,18.62,0,0,0,3,2.65l.26.16h.78l3.67-2.79v-.53c0-.54-.31-1.08-1.13-1.92V37.46q0-.75,0-1.93l.79-.64.78.66c0,1.55,0,3.32.06,5.3a44.21,44.21,0,0,1-.29,4.81v.47l.1.21a7.82,7.82,0,0,0,2.79,2.92l.27.19H55l.29-.23q1.83-1.43,2.93-2.36c2.2,2.25,3.11,2.74,3.83,2.74h.35l3.2-2.39c.4.45,1,1.08,1.83,2l.38.34h.82l.29-.22c1.83-1.39,2.34-1.75,2.48-1.84l.61-.24V46.15l-.14-.8-.21-.22a11.76,11.76,0,0,1-1-1.1V35.08C72.55,33.77,73.47,32.31,73.47,30.72ZM63.26,43.51q-.05-2.71-.05-4.3v-.71q0-1.17,0-3a11.48,11.48,0,0,0,1.56.46q0,2.51,0,4.1v3.24a10.92,10.92,0,0,1-.88.81C63.75,44,63.55,43.8,63.26,43.51Z"/><path class="cls-4" d="M93.81,28.27c2-.14,3.38-.27,4.07-.37a10,10,0,0,0,4.64-1.66l.1-.08c2.09-1.78,3-3,3-4.07V20.85h-1l-.11,0-.55-.22-.48.35a8,8,0,0,1-4.83,1.34H98.2a8.94,8.94,0,0,1-1.37-.05c-5.26-.56-8.44-.84-9.72-.84a9.84,9.84,0,0,0-6,1.68c-2.53,2.14-3.76,4-3.76,5.73v.12c.08.75.22,2,1.35,2h.24a1.67,1.67,0,0,0,1.61-1.29l0-.31a2.93,2.93,0,0,1,.07-.72l.19-.07.2-.34c.11-.2.69-.83,3.35-.83.9,0,2.18.09,3.82.26l-.29.28c-1.58,1.51-2.35,4.5-2.35,9.13v3.83a27.2,27.2,0,0,0-.3,2.87c0,2-.36,3.27-1,3.77L80.76,50,85,49.42c1-.15,1.25-.17,1.2-.17,1.7.12,2.71.18,3.1.18h.92a7.43,7.43,0,0,0,3.74-2,12.45,12.45,0,0,0,2.2-2.68L97,43.15h-.8v-.87l-1.58.89a5,5,0,0,1-2.39.4H91.19A12.87,12.87,0,0,0,92.26,38q-.06-1.82-.06-3.11c0-4.49.7-5.76,1-6.1A1.8,1.8,0,0,0,93.81,28.27Z"/><path class="cls-5" d="M139.76,43.86l-.23-.11h-.72l-.28.21-.09.07q-.05-4.52-.05-6a36.3,36.3,0,0,1,.29-4.09l.06-.5-.35-.36c-1.44-1.48-2.15-2.22-2.57-2.58a2.54,2.54,0,0,0-2.1-1.07h-.41l-.3.27c-1.06,1-1.82,1.58-2.38,2a13.25,13.25,0,0,0-1.86-1.83l-.3-.25h-1.18l-.29.23-1.89,1.5a9,9,0,0,0-1.33-1.61l-.68-.67-.74.61-2.27,1.87a6.32,6.32,0,0,0-2.33-2l-.62-.31-1.47,1.2c-1.11.88-1.82,1.45-2.27,1.85a12.51,12.51,0,0,0-1.14-1c-1-1-1.65-1.47-2.32-1.47h-.36l-.21.1c-.33.16-.86.5-2.92,2.66l-.09.09-.11-.11c-2.07-2.05-2.87-2.56-3.34-2.77l-.27-.09H102l-.3.25a19,19,0,0,0-2.21,2c-.8.56-1.5,1.2-1.5,2v.17l.05.16c.37,1.1,1,1.26,1.42,1.26h.29l-.1,8.41-.11.24a1.86,1.86,0,0,0-.9,1.44c0,.89.91,1.32,1.54,1.58l3,2.27h.86l.29-.24c1.15-1,2.1-1.68,2.84-2.19,1.62,1.89,2.41,2.35,3.06,2.42h.12a1.35,1.35,0,0,0,1.06-.41,18.86,18.86,0,0,0,2.86-2.3c.29.15.69.29,1.21.49a15.33,15.33,0,0,1,2.82,2l.36.25h.69l.25-.15a3.89,3.89,0,0,0,.66-.5,20.53,20.53,0,0,0,3.41-2.86l.69.7a18.62,18.62,0,0,0,3,2.65l.26.16h.78l3.67-2.79v-.53c0-.54-.31-1.08-1.13-1.92V37.46q0-.75,0-1.93l.79-.64.78.66c0,1.55,0,3.32.06,5.3a44.21,44.21,0,0,1-.29,4.81v.47l.1.21a7.82,7.82,0,0,0,2.79,2.92l.27.19h.82l.29-.23c1.65-1.29,2.87-2.28,3.61-3l.36-.32v-.65A1.55,1.55,0,0,0,139.76,43.86Zm-26.21.3h-.12a2.2,2.2,0,0,0-.52.07l-.14-.13q.05-6,.06-9.12l.33-.4a1.45,1.45,0,0,0,1,.37h.33l.31-.21c0,.53.08,1.5.08,3.3,0,2.09-.09,4.07-.25,5.92l-.4.41A1.1,1.1,0,0,0,113.55,44.16Zm-7.21-10.28.08.09c.44.47.69.76.84.94,0,2.76-.09,5.41-.16,7.88-.9.67-1.38,1-1.63,1.17l-.17-.16c0-1.25.07-4.25.17-8.95Zm18,11.34v-.6l-.07-.18a1.44,1.44,0,0,0-1.41-.92h-.12a2.08,2.08,0,0,0-1.48.74l-.07.06a4,4,0,0,1-.58-.5l.11-5.82.71.35h.79l.26-.16a9.06,9.06,0,0,0,2.89-2.5V37q0,2.59.05,7.11Z"/><text class="cls-6" transform="translate(19.21 48.37)">End <tspan class="cls-7" x="59.18" y="0">T</tspan><tspan x="79.87" y="0">urn</tspan></text></g></g></svg>