<svg xmlns="http://www.w3.org/2000/svg" xmlns:xlink="http://www.w3.org/1999/xlink" viewBox="0 0 116 116"><defs><style>.cls-1{fill:#161616;}.cls-2{fill:url(#linear-gradient);}.cls-3{fill:url(#linear-gradient-2);}.cls-4{fill:url(#linear-gradient-3);}.cls-5{fill:#1a1c1e;}.cls-6{fill:#fff;}</style><linearGradient id="linear-gradient" x1="58" y1="107" x2="58" y2="9" gradientUnits="userSpaceOnUse"><stop offset="0" stop-color="#42210b"/><stop offset="0.17" stop-color="#45240b"/><stop offset="0.31" stop-color="#4e2f0c"/><stop offset="0.44" stop-color="#5e400e"/><stop offset="0.57" stop-color="#745811"/><stop offset="0.69" stop-color="#917814"/><stop offset="0.81" stop-color="#b49f18"/><stop offset="0.92" stop-color="#ddcc1d"/><stop offset="0.99" stop-color="#fcee21"/></linearGradient><linearGradient id="linear-gradient-2" y1="4.94" x2="58" y2="111.06" xlink:href="#linear-gradient"/><linearGradient id="linear-gradient-3" y1="24.4" x2="58" y2="91.6" xlink:href="#linear-gradient"/></defs><title>but_drawOver</title><g id="Layer_2" data-name="Layer 2"><g id="Layer_1-2" data-name="Layer 1"><circle class="cls-1" cx="58" cy="58" r="58"/><circle class="cls-2" cx="58" cy="58" r="49"/><path class="cls-3" d="M58,111.06A53.06,53.06,0,1,1,111.06,58,53.12,53.12,0,0,1,58,111.06Zm0-104A50.94,50.94,0,1,0,108.94,58,51,51,0,0,0,58,7.06Z"/><path class="cls-4" d="M89,52.53a7.18,7.18,0,0,0-2.79-3.25L85.82,49h-.47c-.48,0-.52,0-2.5,1.29l-.65.42v.77h0a18,18,0,0,0-2.29-2.25L79,48.48l-.91.71-.87.66h0A4.49,4.49,0,0,1,74.95,48,1.7,1.7,0,0,0,75.37,47v-.27l-.1-.25a2.1,2.1,0,0,0-.84-1,7.46,7.46,0,0,0-2.94-3.91l-.31-.25c-.79-.65-2.4-1.47-4.32.32A8.59,8.59,0,0,0,65,44a4.16,4.16,0,0,0-.47-1.44,7.88,7.88,0,0,0-.71-2.27,2.51,2.51,0,0,0,1,0,2.64,2.64,0,0,0,1.52-.84,2.56,2.56,0,0,0,1.51-1.57l.06-.14,1.09-1.38c1-1.2,1.94-2.43,2.87-3.7,1.28-1.75,1.3-3.58,0-4.66a5.39,5.39,0,0,1-1.58-2.11,2.06,2.06,0,0,0-2-1.47,2,2,0,0,0-1.93,2.07,8.28,8.28,0,0,1-1.55,3.59l-.14.19a2.34,2.34,0,0,0-.53,2.19l-.64,1.08-.1,0a2.81,2.81,0,0,0-3.73,2l-.07.25,0,.1c-.81-.15-1.1-.4-1.26-.72a7.91,7.91,0,0,1-.49-1.49c-.87-3.31-3.25-5-6.35-4.54-3.66.56-6.91,1.27-9.5,4.36C39,37,38.69,40.52,41.09,43.79c-.62-.06-1.28-.09-2-.09h0l-5.91.21-.26-1H31.14l-.25.1c-1.69.68-3.94,1.81-3.94,3.86v.43l.05.08v.13l.14.29a3.75,3.75,0,0,0,3.51,2.07,3.28,3.28,0,0,0-.27.82l0,.22c-.15,6.52-.3,10.92-.42,13.1a2,2,0,0,0-.75,1.44l0,.22a1.59,1.59,0,0,0,1.55,1.45h1.06l.16-.25a13.35,13.35,0,0,1,1.47-.06l1.51,0a3.6,3.6,0,0,0,.66,1.94,5.55,5.55,0,0,0,4.1,2,52.38,52.38,0,0,1,5.87.94c-.26,2.52,1,4.59,2.29,6.32a1.82,1.82,0,0,1,.13.2l-.21.05A3.75,3.75,0,0,0,45,80.15a3.65,3.65,0,0,0,0,3.24c.25.62.56,1.19.85,1.75.18.33.35.67.51,1a5.61,5.61,0,0,0,4.36,3.57l.68.09A7.6,7.6,0,0,1,55.31,91a3.53,3.53,0,0,0,2.12.62,4.32,4.32,0,0,0,2-.44c1.13-.6,2.12-.35,3.6.12A6.21,6.21,0,0,0,68.25,90a5.24,5.24,0,0,0,2.41-4.11,2.64,2.64,0,0,1,1-2.07c.77-.8,1.67-1.62,2.81-2.59,2.33-2,1.35-3.71.82-4.37a6.17,6.17,0,0,1-.77-1.5A6,6,0,0,0,72,72.07l-.09-.15-.09-.15a4.54,4.54,0,0,1-.66-2.14l.11,0a3.88,3.88,0,0,0,1-.59,3.42,3.42,0,0,0,1.3-2.19,5.74,5.74,0,0,1,.19-1c.48.26,1,.58,1.62,1l.75.5.77-.46.44-.29A2.7,2.7,0,0,1,79,65.72h.1a3.66,3.66,0,0,1,1.24.28c2,1.06,2.07,1.1,2.48,1.1h.49l.33-.19a2.56,2.56,0,0,0,.59-.44,14.78,14.78,0,0,1,3.67-1.83l1-.31,0-1c.1-4.66.15-8,.15-10v-.58ZM48.89,54.68H49c0,.48,0,1.16,0,2.14s0,1.67,0,2.48a11.19,11.19,0,0,0-.7,2.09l-.12.11c-.09-.1-.19-.2-.29-.3A13.59,13.59,0,0,0,48.15,58v-3.5A1.74,1.74,0,0,0,48.89,54.68ZM47.28,44.22c.32-.57.52-.65,1.19-.46,1.15.33,1.62.79,1.21,2.54a9,9,0,0,0-.23,3.91c-.55.44-1,.78-1.3,1.06v-.35c0-2.62-.56-4.36-1.75-5.37A8,8,0,0,0,47.28,44.22ZM36.75,55.09c0-3.1.07-4.68.13-5.48l.69,0h.56a4.36,4.36,0,0,1,3.38,1.16,21.73,21.73,0,0,1,.14,3.15c0,3.37-.08,5.71-.09,7a5.35,5.35,0,0,0-1.76,0c-.36,0-.72-.07-1.05-.07a12.53,12.53,0,0,0-2.27.21A46.72,46.72,0,0,0,36.75,55.09Zm46.1-2.19v-.2l.06.06A23.26,23.26,0,0,1,83,55.4c0,.89,0,2.13-.08,3.71L82.75,59C82.75,56.8,82.78,54.74,82.85,52.9ZM64.43,48.3c0-.15,0-.29,0-.45s0-.1,0-.15a6.67,6.67,0,0,0,.33,1,2.51,2.51,0,0,1-.41,0C64.39,48.65,64.41,48.5,64.43,48.3Z"/><path class="cls-5" d="M76.4,51.18c-1.88-.7-3.51-2.29-3.52-4.18,0-2.43-1.48-3.43-3-4.63-.85-.69-1.59-.55-2.46.26-1.9,1.77-2.75,3.65-1.45,6.14.43.83.06,1.36-.85,1.38s-1.65.23-2.31-.45a3.08,3.08,0,0,1-.16-1.91c.1-1.59,1.1-3.2.06-4.8a10,10,0,0,0-1.26-3.45c-.19-.41-.32-.88.06-1.22a.91.91,0,0,1,1.21.05c.87.68,1.68.83,2.37-.23.8,0,.87-.69,1.15-1.18,1.34-1.71,2.73-3.39,4-5.14.6-.82,1.07-2.06.27-2.75a6.78,6.78,0,0,1-2-2.65c-.13-.31-.31-.61-.66-.59s-.55.43-.59.82a9.68,9.68,0,0,1-1.78,4.21c-.35.54-.9,1-.19,1.58L63.89,35c-1.08.32-2.64-1.1-3.28.94-.2.64-.31,1.54-1.4,1.38a3.09,3.09,0,0,1-2.58-1.52A8.87,8.87,0,0,1,56,34c-.66-2.51-2.29-3.87-4.76-3.49-3.19.48-6.28,1.07-8.63,3.87-2.66,3.17-2.92,6.31-.08,9.42,1.56,1.71,2,1.77,3.13-.26A2.16,2.16,0,0,1,48.5,42.4c2.1.6,2.72,2,2.2,4.23-.46,2-.64,3.93,1,5.52.69,2-2.07,3.66-.45,5.71,0,0-.18.31-.31.43a7.28,7.28,0,0,0-1.82,4c-.66.26-.91,1.18-1.77,1.13-1.23-2-2.17-2.27-4-1.11-.68.52-1.32.32-2.09.12-2.42-.64-4.62,1-5.27,3.7-.38,1.59.84,3,3.43,3.3a56.48,56.48,0,0,1,7.4,1.27c-.85,2.56.27,4.59,1.74,6.55.92,1.22.52,2.22-.94,2.5-1.74.33-2.43,1.5-1.76,3.14.38.92.9,1.78,1.33,2.68a4.15,4.15,0,0,0,3.27,2.77c1.82.24,3.66.32,5.27,1.55a2.89,2.89,0,0,0,2.55.05c1.65-.87,3.07-.49,4.69,0,2.23.71,5.89-1.78,5.84-4a4,4,0,0,1,1.36-3.08c.92-.95,1.9-1.83,2.91-2.69.8-.68,1.39-1.46.64-2.39-1.15-1.41-1.14-3.56-3-4.53a1.92,1.92,0,0,1-.57-.73,5.93,5.93,0,0,1-.87-3.21c0-.89,1.07-.92,1.62-1.38a2.16,2.16,0,0,0,.81-1.22c.13-1.78,1.09-3.32,1.33-5.06a8.42,8.42,0,0,0,5-2.93C81.11,55.44,80.5,52.7,76.4,51.18ZM55.87,54.46l.1,1.41c-.24.27-.28.49-.23.66-.05-.17,0-.38.23-.66ZM56.31,57a2,2,0,0,1-.34-.21A2,2,0,0,0,56.31,57Zm6.55-5.71a2.92,2.92,0,0,0,1.36,2.11,2.92,2.92,0,0,1-1.36-2.11ZM49,65l.38-1.87h0A1.94,1.94,0,0,0,50.22,62a1.93,1.93,0,0,1-.86,1.09L49,65a1,1,0,0,0-.61.65A1,1,0,0,1,49,65Z"/><path class="cls-6" d="M31.82,44.3l.05.2q-.41.25-.41.51v.1a5.6,5.6,0,0,0,.66.25l7-.25q4.25,0,6.36,1.53,1.22,1,1.22,4.27V58q0,3.26-.81,4Q44.67,64,41,65.32l-1.42.36q-4.17-.31-6.16-.31-2.19,0-2.39.31h-.3c-.08,0-.13-.08-.15-.25s.24-.35.71-.81q.2-3,.46-13.69a3.4,3.4,0,0,1,1-1.58,4.94,4.94,0,0,0,1-1.07h-.1q-2.52.15-2.9.15a2.36,2.36,0,0,1-2.34-1.27.61.61,0,0,0-.05-.31q0-1.32,3.05-2.54Zm3.87,4q-.36.45-.36,6.82,0,6-.66,7.43l-.41.66h.05a11.07,11.07,0,0,1,4.43-.92,13.54,13.54,0,0,1,3.46.56q.76-.09.76-.76,0-1.09.1-8.14,0-4.07-.46-4.07a5.67,5.67,0,0,0-4.48-1.68h-.56Q36.77,48.17,35.69,48.27Z"/><path class="cls-6" d="M51.59,50.31a4.65,4.65,0,0,1,2.14,2.24h.05q.36-.25,2.75-2.24A4,4,0,0,1,58,52.9v.66q0,1.08-2.44,2.59h-.2l-.1-.05a5.54,5.54,0,0,0,.15-1.37v-.31a1.72,1.72,0,0,0-.66-1.53,8,8,0,0,0-1.07.92l-.15,8.24a4.22,4.22,0,0,0,1.32,1.17.41.41,0,0,1,.05.15h.05a3.7,3.7,0,0,1,.66-.56,1,1,0,0,1,.66-.41h.1a.33.33,0,0,1,.36.2v.05a16.43,16.43,0,0,1-3.1,2.65,2.35,2.35,0,0,1-.46.36h-.05a13.85,13.85,0,0,0-2.65-1.83,4.9,4.9,0,0,1-1.17-.51v-.05a4.08,4.08,0,0,1,.86-1q.25-2.57.25-5.5,0-3.71-.25-3.71a1.08,1.08,0,0,0-.36-.41h-.1l-.81.56q-.28,0-.41-.36A20,20,0,0,1,50.78,51Z"/><path class="cls-6" d="M64.11,50.61a58.84,58.84,0,0,1,5.29,3.31h.1V54q0,.33-.76.86a.4.4,0,0,1-.05.15q0,5.29.1,7.07a2.43,2.43,0,0,0,1.37.71h.46l.1-.05v.46A4.1,4.1,0,0,1,69,64.61q-.75,1-1.17,1a12.13,12.13,0,0,1-2.29-1.68q-.48,0-2,1.37a2,2,0,0,1-.81.41h-.56a8,8,0,0,1-1.68-1.07,8.88,8.88,0,0,0-1.78-.76v-.1q0-.28.61-.81a31.77,31.77,0,0,0,.2-3.31l-.15-6q.62-.39,2.9-1.53a22,22,0,0,0,1.83-1.53Zm-1.58,3.21.1,8.29a7.31,7.31,0,0,0,1.78,1.07,7.28,7.28,0,0,1,1.22-.66V55.65a14.47,14.47,0,0,0-2.49-1.93L63,53.56Z"/><path class="cls-6" d="M73.54,46.59h.1A.7.7,0,0,1,74,47q0,.24-1.07,1a3.27,3.27,0,0,0-.25.86V49q0,1,1.78,2.44a3,3,0,0,1,.71,1.37q-.1,4.13-.1,4.68t.1,2.29L78,60.89v-.05q.15-2.4.15-5.44V53.87q0-.75-.05-2a3.75,3.75,0,0,1-.51-.51q.25-.15,1.37-1a11.85,11.85,0,0,1,2.44,2.54q-.1,2.85-.1,6.26,0,1,.25,1l2.7,1.12v-.05q.15-3.85.15-5.75,0-3.51-.36-3.51a3.91,3.91,0,0,1-.46-.41q1.67-1.07,1.73-1.07A6.14,6.14,0,0,1,87.64,53v.36q0,3-.15,10a16.21,16.21,0,0,0-4.22,2.14c0,.05-.1.14-.31.25h-.1a19,19,0,0,1-1.88-1,5.08,5.08,0,0,0-1.83-.41H79a4,4,0,0,0-2.59,1.12l-.25.15q-3.28-2.19-5.34-2.19v-.05q0-.39,1-.92a79.85,79.85,0,0,0,.3-8,14.68,14.68,0,0,0-1.47-3.05,4.1,4.1,0,0,1-.25-1.22q0-1.25,1.93-2.75Q72.82,47,73.54,46.59Z"/></g></g></svg>