<svg xmlns="http://www.w3.org/2000/svg" xmlns:xlink="http://www.w3.org/1999/xlink" viewBox="0 0 216.39 300.04"><defs><style>.cls-1{fill:url(#linear-gradient);}.cls-2{font-size:25.43px;fill:#fff;font-family:Seagramtfb, Seagram tfb;}.cls-3{opacity:0.67;fill:url(#linear-gradient-2);}.cls-4{fill:#020202;}.cls-5{fill:#161616;}.cls-6{fill:url(#linear-gradient-3);}</style><linearGradient id="linear-gradient" x1="307.55" y1="530.73" x2="307.55" y2="435.97" gradientTransform="translate(-260.18 -310.09)" gradientUnits="userSpaceOnUse"><stop offset="0" stop-color="#380000"/><stop offset="0.19" stop-color="#3b0002"/><stop offset="0.35" stop-color="#460208"/><stop offset="0.5" stop-color="#570412"/><stop offset="0.64" stop-color="#6f0720"/><stop offset="0.77" stop-color="#8f0b32"/><stop offset="0.91" stop-color="#b51048"/><stop offset="0.99" stop-color="#d4145a"/></linearGradient><linearGradient id="linear-gradient-2" x1="346.37" y1="444.87" x2="346.37" y2="521.83" gradientTransform="translate(-298.99 -271.27)" gradientUnits="userSpaceOnUse"><stop offset="0" stop-color="#111"/><stop offset="0.42" stop-color="#131313"/><stop offset="0.59" stop-color="#1a1a1a"/><stop offset="0.73" stop-color="#272727"/><stop offset="0.83" stop-color="#383838"/><stop offset="0.93" stop-color="#4f4f4f"/><stop offset="1" stop-color="#666"/></linearGradient><linearGradient id="linear-gradient-3" x1="-666.09" y1="409.91" x2="-760.85" y2="315.15" gradientTransform="translate(760.85 -315.15)" gradientUnits="userSpaceOnUse"><stop offset="0" stop-color="#380000"/><stop offset="0.34" stop-color="#3a0000"/><stop offset="0.49" stop-color="#410102"/><stop offset="0.59" stop-color="#4e0304"/><stop offset="0.68" stop-color="#5f0607"/><stop offset="0.76" stop-color="#76090c"/><stop offset="0.83" stop-color="#930d11"/><stop offset="0.9" stop-color="#b51217"/><stop offset="0.95" stop-color="#db181e"/><stop offset="1" stop-color="#ff1d25"/></linearGradient></defs><title>EnemySoulsLife</title><g id="Layer_2" data-name="Layer 2"><g id="Layer_1-2" data-name="Layer 1"><path class="cls-1" d="M-79.4,125.89H153.46a20.69,20.69,0,0,1,20.69,20.69V200a20.69,20.69,0,0,1-20.69,20.69H-79.4a0,0,0,0,1,0,0V125.89A0,0,0,0,1-79.4,125.89Z" transform="translate(220.64 125.89) rotate(90)"/><text class="cls-2" transform="translate(18.89 119.68)">Souls</text><rect class="cls-3" x="-36.18" y="173.6" width="167.1" height="76.95" rx="15.68" ry="15.68" transform="translate(259.45 164.7) rotate(90)"/><circle class="cls-4" cx="29.41" cy="180.96" r="11.32"/><circle class="cls-4" cx="29.41" cy="212.32" r="11.32"/><circle class="cls-4" cx="29.41" cy="243.67" r="11.32"/><circle class="cls-4" cx="29.41" cy="275.03" r="11.32"/><circle class="cls-4" cx="63.23" cy="149.61" r="11.32"/><circle class="cls-4" cx="63.23" cy="180.96" r="11.32"/><circle class="cls-4" cx="63.23" cy="212.32" r="11.32"/><circle class="cls-4" cx="63.23" cy="243.67" r="11.32"/><circle class="cls-4" cx="63.23" cy="275.03" r="11.32"/><circle class="cls-4" cx="29.41" cy="149.61" r="11.32"/><path class="cls-5" d="M66.33,0h135.2a14.87,14.87,0,0,1,14.87,14.87v65a14.87,14.87,0,0,1-14.87,14.87H66.33a0,0,0,0,1,0,0V0A0,0,0,0,1,66.33,0Z"/><rect class="cls-6" width="94.75" height="94.75"/><rect x="6.88" y="6.88" width="81" height="81"/></g></g></svg>