<svg xmlns="http://www.w3.org/2000/svg" xmlns:xlink="http://www.w3.org/1999/xlink" viewBox="0 0 410 590"><defs><style>.cls-1{fill:none;}.cls-2{fill:url(#linear-gradient);}.cls-3{fill:#0e0000;}.cls-4{clip-path:url(#clip-path);}.cls-5{clip-path:url(#clip-path-2);}.cls-6{fill:url(#linear-gradient-2);}.cls-7{fill:#fff;}</style><linearGradient id="linear-gradient" x1="205" x2="205" y2="590" gradientUnits="userSpaceOnUse"><stop offset="0" stop-color="#7c0000"/><stop offset="0.22" stop-color="#6c0000"/><stop offset="0.66" stop-color="#400"/><stop offset="1" stop-color="#200000"/></linearGradient><clipPath id="clip-path"><rect class="cls-1" x="80" y="170" width="250" height="250"/></clipPath><clipPath id="clip-path-2"><path class="cls-1" d="M250.59,182.89c-1.79,1.86-1.83,2.23-.23,4.55,7.2,10.41,10.85,22,10.09,34.58-1.26,20.89-11.27,36.54-29.39,47-.46.27-1,.45-1.72.78-.14-.88-.31-1.56-.36-2.25-.73-11.47-6.31-19.81-16.33-25.26-2.52-1.37-5.08-2.69-7.58-4.1-3.48-2-4.65-5.66-2.88-8.9s5.44-4.2,8.89-2.38c5.31,2.79,10.65,5.51,15.8,8.57,1.74,1,2.95,3,4.37,4.52a9.92,9.92,0,0,1,.9,1.57,19.27,19.27,0,0,0,2.17-7.39c1.42-12.51-4-23.11-15-29.27-5-2.78-10-5.47-15-8.16a10,10,0,0,1-5.66-7.64,5.3,5.3,0,0,0-.94-1.62c-.49.47-1.16.85-1.43,1.42a27.68,27.68,0,0,0-2.12,15.24,2.37,2.37,0,0,1-1.32,2.67,29.73,29.73,0,0,0,.87,51.63c1.76,1,3.56,1.9,5.32,2.89,3.43,1.93,4.85,5.43,3.62,8.84s-4.5,5.2-8.41,4.5a55.65,55.65,0,0,1-43.93-42.12c-3.67-16.33-.69-31.44,8.77-45.26,1.46-2.13,1.45-2.57-.28-4.41h-1.1c-3.93,2.23-8,4.24-11.77,6.72-28.49,18.73-45.34,44.94-50.23,78.73-.55,3.8-.77,7.65-1.14,11.47V285c.26,3.16.46,6.33.79,9.49a109.17,109.17,0,0,0,28,62.75c.73.81,1.67,1.73,2.61.89a3.24,3.24,0,0,0,.51-2.73A73,73,0,0,1,123.9,329c.4-3.94,1.28-7.83,2-11.74a10.25,10.25,0,0,1,.67-1.7,5,5,0,0,1,.63.94c3.16,10,9.77,17.51,17.7,24a58.54,58.54,0,0,0,5.46,4c.82.53,2.14,1.08,2.88.78,1.34-.56.71-2,.47-3.09-.95-4.36-2.08-8.69-2.78-13.08a69.18,69.18,0,0,1,.83-27.5c.13-.53.29-1.06.46-1.58.05-.16.21-.28.52-.67.47.8.91,1.47,1.27,2.18a57,57,0,0,0,26.16,26.09,12.63,12.63,0,0,0,1.51.67c1.76.6,2.71,0,2.82-1.89.12-2.13,0-4.29.32-6.4a20.08,20.08,0,0,1,39.85.16c.23,1.87.21,3.78.27,5.67.08,2.64,1.07,3.31,3.48,2.2a51.27,51.27,0,0,0,18.83-14.32c3.12-3.88,5.59-8.29,8.34-12.47.36-.55.65-1.14,1.21-2.15.4,1.11.72,1.79.9,2.51,2.59,10.6,2.18,21.23.13,31.85-.59,3.06-1.52,6-2.12,9.1a8.46,8.46,0,0,0,.46,2.84,8.24,8.24,0,0,0,2.62-.68c8.2-5.54,15.39-12.1,20.26-20.86,1.15-2.07,2-4.34,2.92-6.52.23-.53.42-1.07.64-1.61h.55c.44,1.74,1,3.47,1.3,5.24a73.13,73.13,0,0,1-1.36,33.6c-.32,1.18-1.16,2.64.33,3.49s2.41-.65,3.26-1.61a108.61,108.61,0,0,0,27.08-59.33c.52-4.05.76-8.14,1.13-12.21v-5.14c-.37-3.76-.67-7.54-1.14-11.29a106.82,106.82,0,0,0-14.92-42.79,109.66,109.66,0,0,0-45.69-42c-.49-.24-.93-.57-1.4-.85Z"/></clipPath><linearGradient id="linear-gradient-2" x1="-622.66" y1="39.81" x2="-622.53" y2="39.81" gradientTransform="translate(1097407.45 -69883.13) scale(1762.3)" gradientUnits="userSpaceOnUse"><stop offset="0" stop-color="#ff5b4c"/><stop offset="1" stop-color="#ff024e"/></linearGradient></defs><title>fr_back</title><g id="Layer_2" data-name="Layer 2"><g id="Layer_2-2" data-name="Layer 2"><rect class="cls-2" width="410" height="590" rx="34.19" ry="34.19"/><rect class="cls-3" x="28.5" y="30.89" width="353" height="528.23" rx="24.56" ry="24.56"/><path d="M356.94,31.39A24.09,24.09,0,0,1,381,55.45v479.1a24.09,24.09,0,0,1-24.06,24.06H53.06A24.09,24.09,0,0,1,29,534.55V55.45A24.09,24.09,0,0,1,53.06,31.39H356.94m0-1H53.06A25.06,25.06,0,0,0,28,55.45v479.1a25.06,25.06,0,0,0,25.06,25.06H356.94A25.06,25.06,0,0,0,382,534.55V55.45a25.06,25.06,0,0,0-25.06-25.06Z"/><g class="cls-4"><g class="cls-5"><rect class="cls-6" x="94.55" y="182.89" width="220.29" height="176.14"/></g><g class="cls-4"><path class="cls-7" d="M120.84,405.27v-7.42c0-4.35.44-8.76-.11-13-.69-5.4,1.35-9,5.73-11.68a5.3,5.3,0,0,1,3.24-.87,12.78,12.78,0,0,1,10.59,11c.47,5.05.3,10.16.39,15.25,0,.35,0,.87-.25,1-3.2,2.24-5.3,6.3-10.2,5.78a91.35,91.35,0,0,0-9.39-.06M133,397.68c0-4.92.17-9.54-.07-14.15a6.3,6.3,0,0,0-4.3-5.9v20.05Z"/><path class="cls-7" d="M162.29,405.28H155.1c0-2.52.14-5,0-7.44s-.83-4.75-4-6v13.39h-7.36v-9.42c0-3.24.48-6.56-.1-9.7-1.15-6.21,2.15-9.85,6.58-13a3.08,3.08,0,0,1,2.18-.47c7.12,1.53,9.37,4.41,9.45,11.47a3.49,3.49,0,0,1-1.94,3.57,16.68,16.68,0,0,0-2,1.43c4.61,4.94,5,6.45,4.35,16.2m-11.05-27.5v10.56c2.16-1.15,4.07-2,3.71-4.78-.32-2.5-1-4.59-3.71-5.78"/><path class="cls-7" d="M178.24,372.08l6.49,33.16h-7.56c-.23-1-.51-1.93-.69-2.9-.65-3.58-1.78-4.39-5.37-3.49a2.54,2.54,0,0,0-1.35,1.67,47.24,47.24,0,0,0-.75,4.72h-4.82c1.18-6.25,2.34-12.38,3.51-18.51.64-3.36,1.47-6.7,1.91-10.08.26-2,1.09-2.94,3-3.26s3.57-.82,5.61-1.31m-5,11.61-.59,0-1.75,10.38H175l-1.81-10.41"/><path class="cls-7" d="M197,397.77l1.51-5.21,4.28,2.95a13.76,13.76,0,0,1-1.84,4.73l-.07.09a4,4,0,0,0-.59,1.82c-.23.74-.94.55-2.42,1.65-1.24.92-1.18,1.44-1.95,1.63a3.94,3.94,0,0,1-2.9-.69,14.22,14.22,0,0,1-7.54-12.17c-.06-1,0-2,0-3.06,0-10.89,0-10.9,9.65-17.57l6.43,5.65-3.9,6.78-4.72-6.72c-2.18,8.46-.49,17.16,4.1,20.12"/><path class="cls-7" d="M275.3,394.53c4.74,5.25,4.87,5.35,8.75,5.84a63.31,63.31,0,0,0-4-6c-1.54-1.83-3.47-3.33-5.15-5.05-4.1-4.2-4-9.07.14-13.16.2-.19.41-.38.61-.56,4.39-4,7.06-3.81,11.44.95l-3.39,5.84c-1.82-2.43-3.47-4.66-7.47-4.92a66.4,66.4,0,0,0,4,5.88,56.36,56.36,0,0,0,5,4.8A10.21,10.21,0,0,1,289,396.2a7.45,7.45,0,0,1-1.28,3.67c-1,1.45-2.48,2.54-3.41,4-1.62,2.58-3.75,2.79-6.16,1.62s-4.95-2.71-7.69-4.24l4.82-6.72"/><path class="cls-7" d="M248.69,405.83V398.4c0-4.35.44-8.76-.11-13-.69-5.4,1.35-9,5.73-11.68a5.3,5.3,0,0,1,3.24-.87,12.78,12.78,0,0,1,10.59,11c.47,5.05.3,10.16.39,15.25,0,.35,0,.87-.25,1-3.2,2.24-5.3,6.3-10.2,5.78a91.32,91.32,0,0,0-9.39-.06m12.19-7.59c0-4.92.17-9.54-.07-14.15a6.3,6.3,0,0,0-4.3-5.9v20.05Z"/><path class="cls-7" d="M217.71,372.63l6.49,33.16h-7.56c-.23-1-.51-1.93-.69-2.9-.65-3.58-1.78-4.39-5.37-3.49a2.54,2.54,0,0,0-1.35,1.67,47.24,47.24,0,0,0-.75,4.72h-4.82c1.18-6.25,2.34-12.38,3.51-18.51.64-3.36,1.47-6.7,1.92-10.08.26-2,1.09-2.94,3-3.26s3.57-.82,5.61-1.31m-5,11.61-.59,0-1.75,10.38h4.14l-1.81-10.41"/><path class="cls-7" d="M245.67,405.83h-7.19c0-2.52.14-5,0-7.44s-.83-4.75-4-6v13.39h-7.36v-9.42c0-3.24.48-6.56-.1-9.7-1.15-6.21,2.15-9.85,6.58-13a3.07,3.07,0,0,1,2.18-.46c7.12,1.53,9.37,4.41,9.45,11.47a3.49,3.49,0,0,1-1.94,3.57,16.67,16.67,0,0,0-2,1.43c4.61,4.94,5,6.45,4.35,16.2m-11.05-27.5v10.56c2.16-1.15,4.07-2,3.71-4.78-.32-2.5-1-4.59-3.71-5.78"/></g></g></g></g></svg>